<svg xmlns="http://www.w3.org/2000/svg" xmlns:xlink="http://www.w3.org/1999/xlink" preserveAspectRatio="xMidYMid meet" width="675" height="816" viewBox="0 0 675 816" style="width:100%;height:100%"><defs><animateTransform repeatCount="indefinite" dur="1.668335s" begin="0s" xlink:href="#_R_G_L_11_G_N_10_T_0" fill="freeze" attributeName="transform" from="0" to="20" type="rotate" additive="sum" keyTimes="0;0.14;0.5;1" values="0;0;20;20" keySplines="0.167 0.167 0.349 1;0.167 0.167 0.349 1;0 0 0 0" calcMode="spline"/><animateTransform repeatCount="indefinite" dur="1.668335s" begin="0s" xlink:href="#_R_G_L_11_G_N_10_T_0" fill="freeze" attributeName="transform" from="0.5 0.5" to="0.5 0.5" type="scale" additive="sum" keyTimes="0;1" values="0.5 0.5;0.5 0.5" keySplines="0 0 1 1" calcMode="spline"/><animateTransform repeatCount="indefinite" dur="1.668335s" begin="0s" xlink:href="#_R_G_L_11_G_N_10_T_0" fill="freeze" attributeName="transform" from="-50 -50" to="-50 -50" type="translate" additive="sum" keyTimes="0;1" values="-50 -50;-50 -50" keySplines="0 0 1 1" calcMode="spline"/><animate repeatCount="indefinite" dur="1.668335s" begin="0s" xlink:href="#_R_G_L_11_G_N_10_N_2_T_0_M" fill="freeze" attributeName="opacity" from="0" to="0" keyTimes="0;0.14;0.140002;0.16;0.16;1" values="0;0;1;1;0;0" keySplines="0 0 0 0;0 0 0 0;0 0 0 0;0 0 0 0;0 0 0 0" calcMode="spline"/><animateTransform repeatCount="indefinite" dur="1.668335s" begin="0s" xlink:href="#_R_G_L_10_G_N_10_T_0" fill="freeze" attributeName="transform" from="0" to="20" type="rotate" additive="sum" keyTimes="0;0.14;0.5;1" values="0;0;20;20" keySplines="0.167 0.167 0.349 1;0.167 0.167 0.349 1;0 0 0 0" calcMode="spline"/><animateTransform repeatCount="indefinite" dur="1.668335s" begin="0s" xlink:href="#_R_G_L_10_G_N_10_T_0" fill="freeze" attributeName="transform" from="0.5 0.5" to="0.5 0.5" type="scale" additive="sum" keyTimes="0;1" values="0.5 0.5;0.5 0.5" keySplines="0 0 1 1" calcMode="spline"/><animateTransform repeatCount="indefinite" dur="1.668335s" begin="0s" xlink:href="#_R_G_L_10_G_N_10_T_0" fill="freeze" attributeName="transform" from="-50 -50" to="-50 -50" type="translate" additive="sum" keyTimes="0;1" values="-50 -50;-50 -50" keySplines="0 0 1 1" calcMode="spline"/><animate repeatCount="indefinite" dur="1.668335s" begin="0s" xlink:href="#_R_G_L_10_G_N_10_N_2_T_0_M" fill="freeze" attributeName="opacity" from="0" to="0" keyTimes="0;0.16;0.160002;0.2;0.2;1" values="0;0;1;1;0;0" keySplines="0 0 0 0;0 0 0 0;0 0 0 0;0 0 0 0;0 0 0 0" calcMode="spline"/><animateTransform repeatCount="indefinite" dur="1.668335s" begin="0s" xlink:href="#_R_G_L_9_G_N_10_T_0" fill="freeze" attributeName="transform" from="0" to="20" type="rotate" additive="sum" keyTimes="0;0.14;0.5;1" values="0;0;20;20" keySplines="0.167 0.167 0.349 1;0.167 0.167 0.349 1;0 0 0 0" calcMode="spline"/><animateTransform repeatCount="indefinite" dur="1.668335s" begin="0s" xlink:href="#_R_G_L_9_G_N_10_T_0" fill="freeze" attributeName="transform" from="0.5 0.5" to="0.5 0.5" type="scale" additive="sum" keyTimes="0;1" values="0.5 0.5;0.5 0.5" keySplines="0 0 1 1" calcMode="spline"/><animateTransform repeatCount="indefinite" dur="1.668335s" begin="0s" xlink:href="#_R_G_L_9_G_N_10_T_0" fill="freeze" attributeName="transform" from="-50 -50" to="-50 -50" type="translate" additive="sum" keyTimes="0;1" values="-50 -50;-50 -50" keySplines="0 0 1 1" calcMode="spline"/><animate repeatCount="indefinite" dur="1.668335s" begin="0s" xlink:href="#_R_G_L_9_G_N_10_N_2_T_0_M" fill="freeze" attributeName="opacity" from="0" to="0" keyTimes="0;0.24;0.240002;0.28;0.28;1" values="0;0;1;1;0;0" keySplines="0 0 0 0;0 0 0 0;0 0 0 0;0 0 0 0;0 0 0 0" calcMode="spline"/><animateTransform repeatCount="indefinite" dur="1.668335s" begin="0s" xlink:href="#_R_G_L_8_G_N_10_T_0" fill="freeze" attributeName="transform" from="0" to="20" type="rotate" additive="sum" keyTimes="0;0.14;0.5;1" values="0;0;20;20" keySplines="0.167 0.167 0.349 1;0.167 0.167 0.349 1;0 0 0 0" calcMode="spline"/><animateTransform repeatCount="indefinite" dur="1.668335s" begin="0s" xlink:href="#_R_G_L_8_G_N_10_T_0" fill="freeze" attributeName="transform" from="0.5 0.5" to="0.5 0.5" type="scale" additive="sum" keyTimes="0;1" values="0.5 0.5;0.5 0.5" keySplines="0 0 1 1" calcMode="spline"/><animateTransform repeatCount="indefinite" dur="1.668335s" begin="0s" xlink:href="#_R_G_L_8_G_N_10_T_0" fill="freeze" attributeName="transform" from="-50 -50" to="-50 -50" type="translate" additive="sum" keyTimes="0;1" values="-50 -50;-50 -50" keySplines="0 0 1 1" calcMode="spline"/><animate repeatCount="indefinite" dur="1.668335s" begin="0s" xlink:href="#_R_G_L_8_G_N_10_N_2_T_0_M" fill="freeze" attributeName="opacity" from="0" to="0" keyTimes="0;0.28;0.280002;0.3;0.3;1" values="0;0;1;1;0;0" keySplines="0 0 0 0;0 0 0 0;0 0 0 0;0 0 0 0;0 0 0 0" calcMode="spline"/><animateTransform repeatCount="indefinite" dur="1.668335s" begin="0s" xlink:href="#_R_G_L_7_G_N_10_T_0" fill="freeze" attributeName="transform" from="0" to="20" type="rotate" additive="sum" keyTimes="0;0.14;0.5;1" values="0;0;20;20" keySplines="0.167 0.167 0.349 1;0.167 0.167 0.349 1;0 0 0 0" calcMode="spline"/><animateTransform repeatCount="indefinite" dur="1.668335s" begin="0s" xlink:href="#_R_G_L_7_G_N_10_T_0" fill="freeze" attributeName="transform" from="0.5 0.5" to="0.5 0.5" type="scale" additive="sum" keyTimes="0;1" values="0.5 0.5;0.5 0.5" keySplines="0 0 1 1" calcMode="spline"/><animateTransform repeatCount="indefinite" dur="1.668335s" begin="0s" xlink:href="#_R_G_L_7_G_N_10_T_0" fill="freeze" attributeName="transform" from="-50 -50" to="-50 -50" type="translate" additive="sum" keyTimes="0;1" values="-50 -50;-50 -50" keySplines="0 0 1 1" calcMode="spline"/><animate repeatCount="indefinite" dur="1.668335s" begin="0s" xlink:href="#_R_G_L_7_G_N_10_N_2_T_0_M" fill="freeze" attributeName="opacity" from="0" to="0" keyTimes="0;0.3;0.300002;0.32;0.32;1" values="0;0;1;1;0;0" keySplines="0 0 0 0;0 0 0 0;0 0 0 0;0 0 0 0;0 0 0 0" calcMode="spline"/><animateTransform repeatCount="indefinite" dur="1.668335s" begin="0s" xlink:href="#_R_G_L_6_G_N_10_T_0" fill="freeze" attributeName="transform" from="0" to="20" type="rotate" additive="sum" keyTimes="0;0.14;0.5;1" values="0;0;20;20" keySplines="0.167 0.167 0.349 1;0.167 0.167 0.349 1;0 0 0 0" calcMode="spline"/><animateTransform repeatCount="indefinite" dur="1.668335s" begin="0s" xlink:href="#_R_G_L_6_G_N_10_T_0" fill="freeze" attributeName="transform" from="0.5 0.5" to="0.5 0.5" type="scale" additive="sum" keyTimes="0;1" values="0.5 0.5;0.5 0.5" keySplines="0 0 1 1" calcMode="spline"/><animateTransform repeatCount="indefinite" dur="1.668335s" begin="0s" xlink:href="#_R_G_L_6_G_N_10_T_0" fill="freeze" attributeName="transform" from="-50 -50" to="-50 -50" type="translate" additive="sum" keyTimes="0;1" values="-50 -50;-50 -50" keySplines="0 0 1 1" calcMode="spline"/><animate repeatCount="indefinite" dur="1.668335s" begin="0s" xlink:href="#_R_G_L_6_G_N_10_N_2_T_0_M" fill="freeze" attributeName="opacity" from="0" to="0" keyTimes="0;0.34;0.340002;0.36;0.36;1" values="0;0;1;1;0;0" keySplines="0 0 0 0;0 0 0 0;0 0 0 0;0 0 0 0;0 0 0 0" calcMode="spline"/><animateTransform repeatCount="indefinite" dur="1.668335s" begin="0s" xlink:href="#_R_G_L_5_G_N_3_T_0" fill="freeze" attributeName="transform" from="230" to="240" type="rotate" additive="sum" keyTimes="0;0.46;0.82;1" values="230;230;240;240" keySplines="0.167 0.167 0.367 1;0.167 0.167 0.367 1;0 0 0 0" calcMode="spline"/><animateTransform repeatCount="indefinite" dur="1.668335s" begin="0s" xlink:href="#_R_G_L_5_G_N_3_T_0" fill="freeze" attributeName="transform" from="0.45 0.45" to="0.45 0.45" type="scale" additive="sum" keyTimes="0;1" values="0.45 0.45;0.45 0.45" keySplines="0 0 1 1" calcMode="spline"/><animateTransform repeatCount="indefinite" dur="1.668335s" begin="0s" xlink:href="#_R_G_L_5_G_N_3_T_0" fill="freeze" attributeName="transform" from="-50 -50" to="-50 -50" type="translate" additive="sum" keyTimes="0;1" values="-50 -50;-50 -50" keySplines="0 0 1 1" calcMode="spline"/><animate repeatCount="indefinite" dur="1.668335s" begin="0s" xlink:href="#_R_G_L_5_G_N_3_N_2_T_0_M" fill="freeze" attributeName="opacity" from="0" to="0" keyTimes="0;0.46;0.460002;0.48;0.48;1" values="0;0;1;1;0;0" keySplines="0 0 0 0;0 0 0 0;0 0 0 0;0 0 0 0;0 0 0 0" calcMode="spline"/><animateTransform repeatCount="indefinite" dur="1.668335s" begin="0s" xlink:href="#_R_G_L_4_G_N_3_T_0" fill="freeze" attributeName="transform" from="230" to="240" type="rotate" additive="sum" keyTimes="0;0.46;0.82;1" values="230;230;240;240" keySplines="0.167 0.167 0.367 1;0.167 0.167 0.367 1;0 0 0 0" calcMode="spline"/><animateTransform repeatCount="indefinite" dur="1.668335s" begin="0s" xlink:href="#_R_G_L_4_G_N_3_T_0" fill="freeze" attributeName="transform" from="0.45 0.45" to="0.45 0.45" type="scale" additive="sum" keyTimes="0;1" values="0.45 0.45;0.45 0.45" keySplines="0 0 1 1" calcMode="spline"/><animateTransform repeatCount="indefinite" dur="1.668335s" begin="0s" xlink:href="#_R_G_L_4_G_N_3_T_0" fill="freeze" attributeName="transform" from="-50 -50" to="-50 -50" type="translate" additive="sum" keyTimes="0;1" values="-50 -50;-50 -50" keySplines="0 0 1 1" calcMode="spline"/><animate repeatCount="indefinite" dur="1.668335s" begin="0s" xlink:href="#_R_G_L_4_G_N_3_N_2_T_0_M" fill="freeze" attributeName="opacity" from="0" to="0" keyTimes="0;0.48;0.480002;0.52;0.52;1" values="0;0;1;1;0;0" keySplines="0 0 0 0;0 0 0 0;0 0 0 0;0 0 0 0;0 0 0 0" calcMode="spline"/><animateTransform repeatCount="indefinite" dur="1.668335s" begin="0s" xlink:href="#_R_G_L_3_G_N_3_T_0" fill="freeze" attributeName="transform" from="230" to="240" type="rotate" additive="sum" keyTimes="0;0.46;0.82;1" values="230;230;240;240" keySplines="0.167 0.167 0.367 1;0.167 0.167 0.367 1;0 0 0 0" calcMode="spline"/><animateTransform repeatCount="indefinite" dur="1.668335s" begin="0s" xlink:href="#_R_G_L_3_G_N_3_T_0" fill="freeze" attributeName="transform" from="0.45 0.45" to="0.45 0.45" type="scale" additive="sum" keyTimes="0;1" values="0.45 0.45;0.45 0.45" keySplines="0 0 1 1" calcMode="spline"/><animateTransform repeatCount="indefinite" dur="1.668335s" begin="0s" xlink:href="#_R_G_L_3_G_N_3_T_0" fill="freeze" attributeName="transform" from="-50 -50" to="-50 -50" type="translate" additive="sum" keyTimes="0;1" values="-50 -50;-50 -50" keySplines="0 0 1 1" calcMode="spline"/><animate repeatCount="indefinite" dur="1.668335s" begin="0s" xlink:href="#_R_G_L_3_G_N_3_N_2_T_0_M" fill="freeze" attributeName="opacity" from="0" to="0" keyTimes="0;0.56;0.560002;0.6;0.6;1" values="0;0;1;1;0;0" keySplines="0 0 0 0;0 0 0 0;0 0 0 0;0 0 0 0;0 0 0 0" calcMode="spline"/><animateTransform repeatCount="indefinite" dur="1.668335s" begin="0s" xlink:href="#_R_G_L_2_G_N_3_T_0" fill="freeze" attributeName="transform" from="230" to="240" type="rotate" additive="sum" keyTimes="0;0.46;0.82;1" values="230;230;240;240" keySplines="0.167 0.167 0.367 1;0.167 0.167 0.367 1;0 0 0 0" calcMode="spline"/><animateTransform repeatCount="indefinite" dur="1.668335s" begin="0s" xlink:href="#_R_G_L_2_G_N_3_T_0" fill="freeze" attributeName="transform" from="0.45 0.45" to="0.45 0.45" type="scale" additive="sum" keyTimes="0;1" values="0.45 0.45;0.45 0.45" keySplines="0 0 1 1" calcMode="spline"/><animateTransform repeatCount="indefinite" dur="1.668335s" begin="0s" xlink:href="#_R_G_L_2_G_N_3_T_0" fill="freeze" attributeName="transform" from="-50 -50" to="-50 -50" type="translate" additive="sum" keyTimes="0;1" values="-50 -50;-50 -50" keySplines="0 0 1 1" calcMode="spline"/><animate repeatCount="indefinite" dur="1.668335s" begin="0s" xlink:href="#_R_G_L_2_G_N_3_N_2_T_0_M" fill="freeze" attributeName="opacity" from="0" to="0" keyTimes="0;0.6;0.600002;0.62;0.62;1" values="0;0;1;1;0;0" keySplines="0 0 0 0;0 0 0 0;0 0 0 0;0 0 0 0;0 0 0 0" calcMode="spline"/><animateTransform repeatCount="indefinite" dur="1.668335s" begin="0s" xlink:href="#_R_G_L_1_G_N_3_T_0" fill="freeze" attributeName="transform" from="230" to="240" type="rotate" additive="sum" keyTimes="0;0.46;0.82;1" values="230;230;240;240" keySplines="0.167 0.167 0.367 1;0.167 0.167 0.367 1;0 0 0 0" calcMode="spline"/><animateTransform repeatCount="indefinite" dur="1.668335s" begin="0s" xlink:href="#_R_G_L_1_G_N_3_T_0" fill="freeze" attributeName="transform" from="0.45 0.45" to="0.45 0.45" type="scale" additive="sum" keyTimes="0;1" values="0.45 0.45;0.45 0.45" keySplines="0 0 1 1" calcMode="spline"/><animateTransform repeatCount="indefinite" dur="1.668335s" begin="0s" xlink:href="#_R_G_L_1_G_N_3_T_0" fill="freeze" attributeName="transform" from="-50 -50" to="-50 -50" type="translate" additive="sum" keyTimes="0;1" values="-50 -50;-50 -50" keySplines="0 0 1 1" calcMode="spline"/><animate repeatCount="indefinite" dur="1.668335s" begin="0s" xlink:href="#_R_G_L_1_G_N_3_N_2_T_0_M" fill="freeze" attributeName="opacity" from="0" to="0" keyTimes="0;0.62;0.620002;0.64;0.64;1" values="0;0;1;1;0;0" keySplines="0 0 0 0;0 0 0 0;0 0 0 0;0 0 0 0;0 0 0 0" calcMode="spline"/><animateTransform repeatCount="indefinite" dur="1.668335s" begin="0s" xlink:href="#_R_G_L_0_G_N_3_T_0" fill="freeze" attributeName="transform" from="230" to="240" type="rotate" additive="sum" keyTimes="0;0.46;0.82;1" values="230;230;240;240" keySplines="0.167 0.167 0.367 1;0.167 0.167 0.367 1;0 0 0 0" calcMode="spline"/><animateTransform repeatCount="indefinite" dur="1.668335s" begin="0s" xlink:href="#_R_G_L_0_G_N_3_T_0" fill="freeze" attributeName="transform" from="0.45 0.45" to="0.45 0.45" type="scale" additive="sum" keyTimes="0;1" values="0.45 0.45;0.45 0.45" keySplines="0 0 1 1" calcMode="spline"/><animateTransform repeatCount="indefinite" dur="1.668335s" begin="0s" xlink:href="#_R_G_L_0_G_N_3_T_0" fill="freeze" attributeName="transform" from="-50 -50" to="-50 -50" type="translate" additive="sum" keyTimes="0;1" values="-50 -50;-50 -50" keySplines="0 0 1 1" calcMode="spline"/><animate repeatCount="indefinite" dur="1.668335s" begin="0s" xlink:href="#_R_G_L_0_G_N_3_N_2_T_0_M" fill="freeze" attributeName="opacity" from="0" to="0" keyTimes="0;0.66;0.660002;0.68;0.68;1" values="0;0;1;1;0;0" keySplines="0 0 0 0;0 0 0 0;0 0 0 0;0 0 0 0;0 0 0 0" calcMode="spline"/><animate attributeType="XML" attributeName="opacity" dur="2s" from="0" to="1" xlink:href="#time_group"/></defs><g id="_R_G"><g id="_R_G_L_11_G_N_10_N_2_T_0_M"><g id="_R_G_L_11_G_N_10_N_2_T_0" transform=" translate(335, 408) scale(3.84, 3.84) translate(-48, -50)"><g id="_R_G_L_11_G_N_10_T_0" transform=" translate(50, 50)"><g id="_R_G_L_11_G" transform=" translate(15, 22) translate(0, 0)"><path id="_R_G_L_11_G_D_0_P_0" fill="#fef345" fill-opacity="1" fill-rule="nonzero" d=" M-145.25 76 C-145.25,76 -134,90.5 -134,90.5 C-134,90.5 -131.75,81.75 -131.75,81.75 C-131.75,81.75 -137,82.75 -137,82.75 C-137,82.75 -145.25,76 -145.25,76z "/></g></g></g></g><g id="_R_G_L_10_G_N_10_N_2_T_0_M"><g id="_R_G_L_10_G_N_10_N_2_T_0" transform=" translate(335, 408) scale(3.84, 3.84) translate(-48, -50)"><g id="_R_G_L_10_G_N_10_T_0" transform=" translate(50, 50)"><g id="_R_G_L_10_G" transform=" translate(34.352, 16.952) translate(0, 0)"><path id="_R_G_L_10_G_D_0_P_0" fill="#fef345" fill-opacity="1" fill-rule="nonzero" d=" M-9.5 -154 C-9.5,-154 -37,-145 -37,-145 C-37,-145 -41.5,-102.5 -41.5,-102.5 C-41.5,-102.5 -40,-92.75 -59.5,-85.5 C-79,-78.25 -134,-73.5 -134,-73.5 C-134,-73.5 -135.5,-53.62 -140.5,-36 C-145.5,-18.37 -146.25,-6.87 -146.25,-6.87 C-146.25,-6.87 -140,21.38 -139.62,27.13 C-139.25,32.88 -143.75,38.25 -143.75,38.25 C-143.75,38.25 -154,45.13 -154,45.13 C-154,45.13 -148.5,53.75 -146.12,59.13 C-143.75,64.5 -140,75.5 -140,75.5 C-140,75.5 -144,42 -144,42 C-144,42 -138,28 -138,28 C-138,28 -139.87,2.63 -139.5,-6.37 C-139.12,-15.37 -142.62,-52.75 -128,-65 C-113.37,-77.25 -65,-78.5 -65,-78.5 C-65,-78.5 -38,-91.5 -38,-91.5 C-38,-91.5 -42.87,-110.37 -33,-129.75 C-23.12,-149.12 -11.87,-147.25 -4.5,-144.5 C2.88,-141.75 4,-133.5 4,-133.5 C4,-133.5 5,-140.62 20.63,-137.12 C36.25,-133.62 52,-122 52,-122 C52,-122 43.5,-132 43.5,-132 C43.5,-132 34.5,-133 34.5,-133 C34.5,-133 12,-147.5 12,-147.5 C12,-147.5 10,-139.5 10,-139.5 C10,-139.5 -9.5,-154 -9.5,-154z "/><path id="_R_G_L_10_G_D_1_P_0" fill="#fef345" fill-opacity="1" fill-rule="nonzero" d=" M-130 -111 C-130,-111 -129.12,-104.12 -135,-101.5 C-140.87,-98.87 -147.75,-99.75 -147.75,-99.75 C-147.75,-99.75 -158.75,-91.75 -158.75,-91.75 C-158.75,-91.75 -160.37,-59.75 -160.37,-59.75 C-160.37,-59.75 -159.12,-64.62 -156.5,-75.5 C-153.87,-86.37 -155,-90.75 -155,-90.75 C-155,-90.75 -152.87,-93.87 -147,-96.5 C-141.12,-99.12 -137,-96.75 -137,-96.75 C-137,-96.75 -130.5,-101.25 -130.5,-101.25 C-130.5,-101.25 -130,-111 -130,-111z "/></g></g></g></g><g id="_R_G_L_9_G_N_10_N_2_T_0_M"><g id="_R_G_L_9_G_N_10_N_2_T_0" transform=" translate(335, 408) scale(3.84, 3.84) translate(-48, -50)"><g id="_R_G_L_9_G_N_10_T_0" transform=" translate(50, 50)"><g id="_R_G_L_9_G" transform=" translate(-25, 42) translate(0, 0)"><path id="_R_G_L_9_G_D_0_P_0" fill="#fef345" fill-opacity="1" fill-rule="nonzero" d=" M63.5 -178.5 C63.5,-178.5 47.25,-168.62 47.25,-168.62 C47.25,-168.62 59.13,-160.75 57.5,-142.25 C55.88,-123.75 40.75,-117.5 40.75,-117.5 C40.75,-117.5 -11.75,-99 -11.75,-99 C-11.75,-99 -43.25,-103.25 -43.25,-103.25 C-43.25,-103.25 -70,-74 -70,-74 C-70,-74 -79.75,-29.75 -79.75,-29.75 C-79.75,-29.75 -67.13,-82.5 -46.5,-90.75 C-25.25,-99.25 -19.62,-95.62 -19.62,-95.62 C-19.62,-95.62 -11.5,-96.12 -3.87,-94.75 C3.75,-93.37 9.38,-87.75 9.38,-87.75 C9.38,-87.75 67.25,-132.37 67.25,-132.37 C67.25,-132.37 54.75,-143.37 62.25,-154.37 C69.75,-165.37 82.13,-170.25 101,-160.75 C119.88,-151.25 122.63,-133.37 113.38,-123.25 C104.13,-113.12 69.5,-110.37 69.5,-110.37 C69.5,-110.37 90.63,-107.25 101.38,-108.5 C112.13,-109.75 115.13,-112.62 115.13,-112.62 C115.13,-112.62 112.38,-116.25 118,-122.62 C123.63,-129 126.63,-124.37 126.63,-124.37 C126.63,-124.37 129.88,-123 129.88,-123 C129.88,-123 127.5,-126.75 138.5,-122.75 C149.5,-118.75 170.13,-118 188.5,-94.75 C206.88,-71.5 208.5,-47.5 208.5,-47.5 C208.5,-47.5 211.75,-20.75 211.75,-20.75 C211.75,-20.75 215.5,-45.25 215.5,-45.25 C215.5,-45.25 211.25,-51.5 211.25,-51.5 C211.25,-51.5 201.5,-82 201.5,-82 C201.5,-82 198.25,-106 198.25,-106 C198.25,-106 174.75,-131.25 174.75,-131.25 C174.75,-131.25 176.13,-129.12 156.25,-126.25 C136.38,-123.37 127.25,-129.75 127.25,-129.75 C127.25,-129.75 121.88,-132.62 125.25,-143.75 C128.63,-154.87 136.25,-152.5 136.25,-152.5 C136.25,-152.5 107.88,-167.25 87.25,-169.25 C75.24,-170.41 63.5,-178.5 63.5,-178.5z "/></g></g></g></g><g id="_R_G_L_8_G_N_10_N_2_T_0_M"><g id="_R_G_L_8_G_N_10_N_2_T_0" transform=" translate(335, 408) scale(3.84, 3.84) translate(-48, -50)"><g id="_R_G_L_8_G_N_10_T_0" transform=" translate(50, 50)"><g id="_R_G_L_8_G" transform=" translate(-25, 42) translate(0, 0)"><path id="_R_G_L_8_G_D_0_P_0" fill="#fef345" fill-opacity="1" fill-rule="nonzero" d=" M-31 -113.87 C-31,-113.87 -49.12,-108.62 -49.12,-108.62 C-49.12,-108.62 -36.12,-112.25 -32.12,-111.87 C-20.25,-111.62 -14.5,-101.5 -14.5,-101.5 C-14.5,-101.5 -7.5,-102.25 -7.5,-102.25 C-7.5,-102.25 -14,-103.62 -14,-103.62 C-14,-103.62 -17.87,-111.5 -17.87,-111.5 C-17.87,-111.5 -31,-113.87 -31,-113.87z "/><path id="_R_G_L_8_G_D_1_P_0" fill="#fef345" fill-opacity="1" fill-rule="nonzero" d=" M59.5 -150.87 C59.5,-150.87 57.25,-133 57.25,-133 C57.25,-133 75.88,-132.37 77.38,-121.87 C78.88,-111.37 72.63,-107 62.25,-104.62 C51.88,-102.25 2.13,-97.37 2.13,-97.37 C2.13,-97.37 13.5,-91.75 13.5,-91.75 C13.5,-91.75 13,-99.5 46.13,-99.37 C89,-110 94.88,-100 94.88,-100 C94.88,-100 86.5,-119.75 86.5,-119.75 C86.5,-119.75 79.78,-125.14 73.63,-130.12 C62.5,-138.12 59.5,-150.87 59.5,-150.87z "/><path id="_R_G_L_8_G_D_2_P_0" fill="#fef345" fill-opacity="1" fill-rule="nonzero" d=" M82.88 -171.87 C82.88,-171.87 69.13,-162.12 69.13,-162.12 C69.13,-162.12 84,-167.62 84,-167.62 C84,-167.62 89.5,-166.12 89.5,-166.12 C89.5,-166.12 100.38,-167.5 100.38,-167.5 C100.38,-167.5 120.13,-153.12 120.13,-153.12 C120.13,-153.12 128.88,-152.12 131,-150 C133.13,-147.87 128.88,-137.12 128.88,-137.12 C128.88,-137.12 134.5,-149.75 134.5,-149.75 C134.5,-149.75 132.38,-151.87 132.38,-151.87 C132.38,-151.87 122.88,-162.75 122.88,-162.75 C122.88,-162.75 113.25,-163 112.75,-163.25 C112.72,-163.27 123.03,-162.42 112.52,-163.4 C102,-164.37 101.13,-171.62 101.13,-171.62 C101.13,-171.62 96.75,-167.75 90.75,-167.87 C87.81,-167.91 82.88,-171.87 82.88,-171.87z "/><path id="_R_G_L_8_G_D_3_P_0" fill="#fef345" fill-opacity="1" fill-rule="nonzero" d=" M127.63 -130.5 C127.63,-130.5 129.13,-125.25 129.13,-125.25 C129.13,-125.25 128.63,-122 128.63,-122 C128.63,-122 131.75,-119.5 131.75,-119.12 C131.75,-118.75 119.88,-112.75 119.88,-112.75 C119.88,-112.75 132.63,-112 132.63,-112 C132.63,-112 138.5,-117.37 138.13,-117.37 C137.75,-117.37 132.38,-120.62 132.38,-120.62 C132.38,-120.62 132,-125 132,-125 C132,-125 138.38,-119 138.38,-119 C138.38,-119 143.75,-118.87 143.75,-118.87 C143.75,-118.87 154.38,-110.37 154.38,-110.37 C154.38,-110.37 164.12,-117.28 169.75,-117.37 C175.35,-117.47 181.63,-118.62 185.25,-110.87 C196.14,-94.98 210.25,-58.25 210,-58.62 C209.75,-59 210.63,-30.75 210.63,-30.75 C210.63,-30.75 219.5,-17.25 219.5,-17.25 C219.5,-17.25 234.25,-4.5 234.13,-4.87 C234,-5.25 223.5,-16.75 223,-17.12 C222.5,-17.5 208.38,-29.25 216.88,-35.87 C215,-52.5 203,-82 203,-82 C203,-82 193.88,-125 193.88,-125 C193.88,-125 190.75,-111.75 184.38,-119.12 C176.84,-118.13 161.63,-120.75 161.63,-120.75 C161.63,-120.75 163.63,-115.75 155.13,-116.12 C140.25,-117.87 127.63,-130.5 127.63,-130.5z "/></g></g></g></g><g id="_R_G_L_7_G_N_10_N_2_T_0_M"><g id="_R_G_L_7_G_N_10_N_2_T_0" transform=" translate(335, 408) scale(3.84, 3.84) translate(-48, -50)"><g id="_R_G_L_7_G_N_10_T_0" transform=" translate(50, 50)"><g id="_R_G_L_7_G" transform=" translate(-25, 42) translate(0, 0)"><path id="_R_G_L_7_G_D_0_P_0" fill="#fef345" fill-opacity="1" fill-rule="nonzero" d=" M137.5 -123.5 C137.5,-123.5 154,-109.5 154,-109.5 C154,-109.5 159,-113.25 159,-113.25 C159,-113.25 170.75,-113.75 170.75,-113.75 C170.75,-113.75 153,-115.75 153,-115.75 C153,-115.75 137.5,-123.5 137.5,-123.5z "/><path id="_R_G_L_7_G_D_1_P_0" fill="#fef345" fill-opacity="1" fill-rule="nonzero" d=" M188.75 -111.25 C188.75,-111.25 192.5,-105.5 192.5,-105.5 C192.5,-105.5 192.75,-91.25 192.75,-91.25 C192.75,-91.25 200,-70 200,-70 C200,-70 196.25,-93.25 196.25,-93.25 C196.25,-93.25 196.75,-107.75 196.75,-107.75 C196.75,-107.75 188.75,-111.25 188.75,-111.25z "/><path id="_R_G_L_7_G_D_2_P_0" fill="#fef345" fill-opacity="1" fill-rule="nonzero" d=" M210.5 -57.25 C210.5,-57.25 214,-33.25 214,-33.25 C214,-33.25 227.5,-21 227.5,-21 C227.5,-21 227.5,6.75 227.5,8 C227.5,9.25 234.75,-24.25 234.75,-24.25 C234.75,-24.25 230,-33 230,-33 C230,-33 230.5,-27.75 230.5,-27.75 C230.5,-27.75 224.5,-29.25 224.5,-29.25 C224.5,-29.25 210.5,-57.25 210.5,-57.25z "/><path id="_R_G_L_7_G_D_3_P_0" fill="#fef345" fill-opacity="1" fill-rule="nonzero" d=" M171.25 -60.75 C171.25,-60.75 170.75,-51.25 170.75,-51.25 C170.75,-51.25 162.25,-46.25 162.25,-46.25 C162.25,-46.25 172,-47.5 172,-47.5 C172,-47.5 176.25,-45.75 176,-46.5 C175.75,-47.25 173.38,-49.75 173.38,-49.75 C173.38,-49.75 171.25,-60.75 171.25,-60.75z "/></g></g></g></g><g id="_R_G_L_6_G_N_10_N_2_T_0_M"><g id="_R_G_L_6_G_N_10_N_2_T_0" transform=" translate(335, 408) scale(3.84, 3.84) translate(-48, -50)"><g id="_R_G_L_6_G_N_10_T_0" transform=" translate(50, 50)"><g id="_R_G_L_6_G" transform=" translate(-25, 42) translate(0, 0)"><path id="_R_G_L_6_G_D_0_P_0" fill="#fef345" fill-opacity="1" fill-rule="nonzero" d=" M213 -43.25 C213,-43.25 216.5,-19.25 216.5,-19.25 C216.5,-19.25 218.75,-13 218.75,-13 C218.75,-13 227.5,6.75 227.5,8 C227.5,9.25 230.75,-0.25 230.75,-0.25 C230.75,-0.25 231.75,-11.5 231.75,-11.5 C231.75,-11.5 228.75,-10.5 228.75,-10.5 C228.75,-10.5 223.25,-11.5 223.25,-11.5 C223.25,-11.5 213,-43.25 213,-43.25z "/></g></g></g></g><g id="_R_G_L_5_G_N_3_N_2_T_0_M"><g id="_R_G_L_5_G_N_3_N_2_T_0" transform=" translate(335, 408) scale(3.84, 3.84) translate(-48, -50)"><g id="_R_G_L_5_G_N_3_T_0" transform=" translate(50, 39)"><g id="_R_G_L_5_G" transform=" translate(9.723, 2.854) rotate(-14.62) translate(0, 0)"><path id="_R_G_L_5_G_D_0_P_0" fill="#fef345" fill-opacity="1" fill-rule="nonzero" d=" M-145.25 76 C-145.25,76 -134,90.5 -134,90.5 C-134,90.5 -131.75,81.75 -131.75,81.75 C-131.75,81.75 -137,82.75 -137,82.75 C-137,82.75 -145.25,76 -145.25,76z "/></g></g></g></g><g id="_R_G_L_4_G_N_3_N_2_T_0_M"><g id="_R_G_L_4_G_N_3_N_2_T_0" transform=" translate(335, 408) scale(3.84, 3.84) translate(-48, -50)"><g id="_R_G_L_4_G_N_3_T_0" transform=" translate(50, 39)"><g id="_R_G_L_4_G" transform=" translate(9.723, 2.854) rotate(-14.62) translate(0, 0)"><path id="_R_G_L_4_G_D_0_P_0" fill="#fef345" fill-opacity="1" fill-rule="nonzero" d=" M-9.5 -154 C-9.5,-154 -37,-145 -37,-145 C-37,-145 -41.5,-102.5 -41.5,-102.5 C-41.5,-102.5 -40,-92.75 -59.5,-85.5 C-79,-78.25 -134,-73.5 -134,-73.5 C-134,-73.5 -135.5,-53.62 -140.5,-36 C-145.5,-18.37 -146.25,-6.87 -146.25,-6.87 C-146.25,-6.87 -140,21.38 -139.62,27.13 C-139.25,32.88 -143.75,38.25 -143.75,38.25 C-143.75,38.25 -154,45.13 -154,45.13 C-154,45.13 -148.5,53.75 -146.12,59.13 C-143.75,64.5 -140,75.5 -140,75.5 C-140,75.5 -144,42 -144,42 C-144,42 -138,28 -138,28 C-138,28 -139.87,2.63 -139.5,-6.37 C-139.12,-15.37 -142.62,-52.75 -128,-65 C-113.37,-77.25 -65,-78.5 -65,-78.5 C-65,-78.5 -38,-91.5 -38,-91.5 C-38,-91.5 -42.87,-110.37 -33,-129.75 C-23.12,-149.12 -11.87,-147.25 -4.5,-144.5 C2.88,-141.75 4,-133.5 4,-133.5 C4,-133.5 5,-140.62 20.63,-137.12 C36.25,-133.62 52,-122 52,-122 C52,-122 43.5,-132 43.5,-132 C43.5,-132 34.5,-133 34.5,-133 C34.5,-133 12,-147.5 12,-147.5 C12,-147.5 10,-139.5 10,-139.5 C10,-139.5 -9.5,-154 -9.5,-154z "/><path id="_R_G_L_4_G_D_1_P_0" fill="#fef345" fill-opacity="1" fill-rule="nonzero" d=" M-130 -111 C-130,-111 -129.12,-104.12 -135,-101.5 C-140.87,-98.87 -147.75,-99.75 -147.75,-99.75 C-147.75,-99.75 -158.75,-91.75 -158.75,-91.75 C-158.75,-91.75 -160.37,-59.75 -160.37,-59.75 C-160.37,-59.75 -159.12,-64.62 -156.5,-75.5 C-153.87,-86.37 -155,-90.75 -155,-90.75 C-155,-90.75 -152.87,-93.87 -147,-96.5 C-141.12,-99.12 -137,-96.75 -137,-96.75 C-137,-96.75 -130.5,-101.25 -130.5,-101.25 C-130.5,-101.25 -130,-111 -130,-111z "/></g></g></g></g><g id="_R_G_L_3_G_N_3_N_2_T_0_M"><g id="_R_G_L_3_G_N_3_N_2_T_0" transform=" translate(335, 408) scale(3.84, 3.84) translate(-48, -50)"><g id="_R_G_L_3_G_N_3_T_0" transform=" translate(50, 39)"><g id="_R_G_L_3_G" transform=" translate(-39.585, 28.208) rotate(-14.62) translate(0, 0)"><path id="_R_G_L_3_G_D_0_P_0" fill="#fef345" fill-opacity="1" fill-rule="nonzero" d=" M63.5 -178.5 C63.5,-178.5 47.25,-168.62 47.25,-168.62 C47.25,-168.62 59.13,-160.75 57.5,-142.25 C55.88,-123.75 40.75,-117.5 40.75,-117.5 C40.75,-117.5 -11.75,-99 -11.75,-99 C-11.75,-99 -43.25,-103.25 -43.25,-103.25 C-43.25,-103.25 -70,-74 -70,-74 C-70,-74 -79.75,-29.75 -79.75,-29.75 C-79.75,-29.75 -67.13,-82.5 -46.5,-90.75 C-25.25,-99.25 -19.62,-95.62 -19.62,-95.62 C-19.62,-95.62 -11.5,-96.12 -3.87,-94.75 C3.75,-93.37 9.38,-87.75 9.38,-87.75 C9.38,-87.75 67.25,-132.37 67.25,-132.37 C67.25,-132.37 54.75,-143.37 62.25,-154.37 C69.75,-165.37 82.13,-170.25 101,-160.75 C119.88,-151.25 122.63,-133.37 113.38,-123.25 C104.13,-113.12 69.5,-110.37 69.5,-110.37 C69.5,-110.37 90.63,-107.25 101.38,-108.5 C112.13,-109.75 115.13,-112.62 115.13,-112.62 C115.13,-112.62 112.38,-116.25 118,-122.62 C123.63,-129 126.63,-124.37 126.63,-124.37 C126.63,-124.37 129.88,-123 129.88,-123 C129.88,-123 127.5,-126.75 138.5,-122.75 C149.5,-118.75 170.13,-118 188.5,-94.75 C206.88,-71.5 208.5,-47.5 208.5,-47.5 C208.5,-47.5 211.75,-20.75 211.75,-20.75 C211.75,-20.75 215.5,-45.25 215.5,-45.25 C215.5,-45.25 211.25,-51.5 211.25,-51.5 C211.25,-51.5 201.5,-82 201.5,-82 C201.5,-82 198.25,-106 198.25,-106 C198.25,-106 174.75,-131.25 174.75,-131.25 C174.75,-131.25 176.13,-129.12 156.25,-126.25 C136.38,-123.37 127.25,-129.75 127.25,-129.75 C127.25,-129.75 121.88,-132.62 125.25,-143.75 C128.63,-154.87 136.25,-152.5 136.25,-152.5 C136.25,-152.5 107.88,-167.25 87.25,-169.25 C75.24,-170.41 63.5,-178.5 63.5,-178.5z "/></g></g></g></g><g id="_R_G_L_2_G_N_3_N_2_T_0_M"><g id="_R_G_L_2_G_N_3_N_2_T_0" transform=" translate(335, 408) scale(3.84, 3.84) translate(-48, -50)"><g id="_R_G_L_2_G_N_3_T_0" transform=" translate(50, 39)"><g id="_R_G_L_2_G" transform=" translate(-39.585, 28.208) rotate(-14.62) translate(0, 0)"><path id="_R_G_L_2_G_D_0_P_0" fill="#fef345" fill-opacity="1" fill-rule="nonzero" d=" M-31 -113.87 C-31,-113.87 -49.12,-108.62 -49.12,-108.62 C-49.12,-108.62 -36.12,-112.25 -32.12,-111.87 C-20.25,-111.62 -14.5,-101.5 -14.5,-101.5 C-14.5,-101.5 -7.5,-102.25 -7.5,-102.25 C-7.5,-102.25 -14,-103.62 -14,-103.62 C-14,-103.62 -17.87,-111.5 -17.87,-111.5 C-17.87,-111.5 -31,-113.87 -31,-113.87z "/><path id="_R_G_L_2_G_D_1_P_0" fill="#fef345" fill-opacity="1" fill-rule="nonzero" d=" M59.5 -150.87 C59.5,-150.87 57.25,-133 57.25,-133 C57.25,-133 75.88,-132.37 77.38,-121.87 C78.88,-111.37 72.63,-107 62.25,-104.62 C51.88,-102.25 2.13,-97.37 2.13,-97.37 C2.13,-97.37 13.5,-91.75 13.5,-91.75 C13.5,-91.75 13,-99.5 46.13,-99.37 C89,-110 94.88,-100 94.88,-100 C94.88,-100 86.5,-119.75 86.5,-119.75 C86.5,-119.75 79.78,-125.14 73.63,-130.12 C62.5,-138.12 59.5,-150.87 59.5,-150.87z "/><path id="_R_G_L_2_G_D_2_P_0" fill="#fef345" fill-opacity="1" fill-rule="nonzero" d=" M82.88 -171.87 C82.88,-171.87 69.13,-162.12 69.13,-162.12 C69.13,-162.12 84,-167.62 84,-167.62 C84,-167.62 89.5,-166.12 89.5,-166.12 C89.5,-166.12 100.38,-167.5 100.38,-167.5 C100.38,-167.5 120.13,-153.12 120.13,-153.12 C120.13,-153.12 128.88,-152.12 131,-150 C133.13,-147.87 128.88,-137.12 128.88,-137.12 C128.88,-137.12 134.5,-149.75 134.5,-149.75 C134.5,-149.75 132.38,-151.87 132.38,-151.87 C132.38,-151.87 122.88,-162.75 122.88,-162.75 C122.88,-162.75 113.25,-163 112.75,-163.25 C112.72,-163.27 123.03,-162.42 112.52,-163.4 C102,-164.37 101.13,-171.62 101.13,-171.62 C101.13,-171.62 96.75,-167.75 90.75,-167.87 C87.81,-167.91 82.88,-171.87 82.88,-171.87z "/><path id="_R_G_L_2_G_D_3_P_0" fill="#fef345" fill-opacity="1" fill-rule="nonzero" d=" M127.63 -130.5 C127.63,-130.5 129.13,-125.25 129.13,-125.25 C129.13,-125.25 128.63,-122 128.63,-122 C128.63,-122 131.75,-119.5 131.75,-119.12 C131.75,-118.75 119.88,-112.75 119.88,-112.75 C119.88,-112.75 132.63,-112 132.63,-112 C132.63,-112 138.5,-117.37 138.13,-117.37 C137.75,-117.37 132.38,-120.62 132.38,-120.62 C132.38,-120.62 132,-125 132,-125 C132,-125 138.38,-119 138.38,-119 C138.38,-119 143.75,-118.87 143.75,-118.87 C143.75,-118.87 154.38,-110.37 154.38,-110.37 C154.38,-110.37 164.12,-117.28 169.75,-117.37 C175.35,-117.47 181.63,-118.62 185.25,-110.87 C196.14,-94.98 210.25,-58.25 210,-58.62 C209.75,-59 210.63,-30.75 210.63,-30.75 C210.63,-30.75 219.5,-17.25 219.5,-17.25 C219.5,-17.25 234.25,-4.5 234.13,-4.87 C234,-5.25 223.5,-16.75 223,-17.12 C222.5,-17.5 208.38,-29.25 216.88,-35.87 C215,-52.5 203,-82 203,-82 C203,-82 193.88,-125 193.88,-125 C193.88,-125 190.75,-111.75 184.38,-119.12 C176.84,-118.13 161.63,-120.75 161.63,-120.75 C161.63,-120.75 163.63,-115.75 155.13,-116.12 C140.25,-117.87 127.63,-130.5 127.63,-130.5z "/></g></g></g></g><g id="_R_G_L_1_G_N_3_N_2_T_0_M"><g id="_R_G_L_1_G_N_3_N_2_T_0" transform=" translate(335, 408) scale(3.84, 3.84) translate(-48, -50)"><g id="_R_G_L_1_G_N_3_T_0" transform=" translate(50, 39)"><g id="_R_G_L_1_G" transform=" translate(-39.585, 28.208) rotate(-14.62) translate(0, 0)"><path id="_R_G_L_1_G_D_0_P_0" fill="#fef345" fill-opacity="1" fill-rule="nonzero" d=" M137.5 -123.5 C137.5,-123.5 154,-109.5 154,-109.5 C154,-109.5 159,-113.25 159,-113.25 C159,-113.25 170.75,-113.75 170.75,-113.75 C170.75,-113.75 153,-115.75 153,-115.75 C153,-115.75 137.5,-123.5 137.5,-123.5z "/><path id="_R_G_L_1_G_D_1_P_0" fill="#fef345" fill-opacity="1" fill-rule="nonzero" d=" M188.75 -111.25 C188.75,-111.25 192.5,-105.5 192.5,-105.5 C192.5,-105.5 192.75,-91.25 192.75,-91.25 C192.75,-91.25 200,-70 200,-70 C200,-70 196.25,-93.25 196.25,-93.25 C196.25,-93.25 196.75,-107.75 196.75,-107.75 C196.75,-107.75 188.75,-111.25 188.75,-111.25z "/><path id="_R_G_L_1_G_D_2_P_0" fill="#fef345" fill-opacity="1" fill-rule="nonzero" d=" M210.5 -57.25 C210.5,-57.25 214,-33.25 214,-33.25 C214,-33.25 227.5,-21 227.5,-21 C227.5,-21 227.5,6.75 227.5,8 C227.5,9.25 234.75,-24.25 234.75,-24.25 C234.75,-24.25 230,-33 230,-33 C230,-33 230.5,-27.75 230.5,-27.75 C230.5,-27.75 224.5,-29.25 224.5,-29.25 C224.5,-29.25 210.5,-57.25 210.5,-57.25z "/><path id="_R_G_L_1_G_D_3_P_0" fill="#fef345" fill-opacity="1" fill-rule="nonzero" d=" M171.25 -60.75 C171.25,-60.75 170.75,-51.25 170.75,-51.25 C170.75,-51.25 162.25,-46.25 162.25,-46.25 C162.25,-46.25 172,-47.5 172,-47.5 C172,-47.5 176.25,-45.75 176,-46.5 C175.75,-47.25 173.38,-49.75 173.38,-49.75 C173.38,-49.75 171.25,-60.75 171.25,-60.75z "/></g></g></g></g><g id="_R_G_L_0_G_N_3_N_2_T_0_M"><g id="_R_G_L_0_G_N_3_N_2_T_0" transform=" translate(335, 408) scale(3.84, 3.84) translate(-48, -50)"><g id="_R_G_L_0_G_N_3_T_0" transform=" translate(50, 39)"><g id="_R_G_L_0_G" transform=" translate(-39.585, 28.208) rotate(-14.62) translate(0, 0)"><path id="_R_G_L_0_G_D_0_P_0" fill="#fef345" fill-opacity="1" fill-rule="nonzero" d=" M213 -43.25 C213,-43.25 216.5,-19.25 216.5,-19.25 C216.5,-19.25 218.75,-13 218.75,-13 C218.75,-13 227.5,6.75 227.5,8 C227.5,9.25 230.75,-0.25 230.75,-0.25 C230.75,-0.25 231.75,-11.5 231.75,-11.5 C231.75,-11.5 228.75,-10.5 228.75,-10.5 C228.75,-10.5 223.25,-11.5 223.25,-11.5 C223.25,-11.5 213,-43.25 213,-43.25z "/></g></g></g></g></g><g id="time_group"/></svg>